<svg width="104" height="19" viewBox="0 0 104 19" fill="none" xmlns="http://www.w3.org/2000/svg">
<path d="M7.00994 3.09091H4.95739V0.477273H1.93182V3.09091H0.440341V5.36364H1.93182V11.0455C1.91761 13.1832 3.37358 14.2415 5.56818 14.1491C6.34943 14.1207 6.90341 13.9645 7.20881 13.8651L6.73295 11.6136C6.58381 11.642 6.2642 11.7131 5.98011 11.7131C5.37642 11.7131 4.95739 11.4858 4.95739 10.6477V5.36364H7.00994V3.09091ZM10.8487 18.0909C13.1001 18.0909 14.2933 16.9403 14.9112 15.179L19.1513 3.10511L15.9482 3.09091L13.6683 11.1023H13.5547L11.2962 3.09091H8.11435L12.0277 14.3125L11.8501 14.7741C11.4524 15.7969 10.6925 15.8466 9.62713 15.5199L8.94531 17.7784C9.37855 17.9631 10.0817 18.0909 10.8487 18.0909ZM20.6996 18.0909H23.7251V12.2528H23.8175C24.2365 13.1619 25.1527 14.1776 26.9141 14.1776C29.3999 14.1776 31.3388 12.2102 31.3388 8.55966C31.3388 4.80966 29.3146 2.94886 26.9212 2.94886C25.0959 2.94886 24.2223 4.03551 23.8175 4.9233H23.6825V3.09091H20.6996V18.0909ZM23.6612 8.54545C23.6612 6.59943 24.4851 5.35653 25.9553 5.35653C27.4538 5.35653 28.2493 6.65625 28.2493 8.54545C28.2493 10.4489 27.4396 11.7699 25.9553 11.7699C24.4993 11.7699 23.6612 10.4915 23.6612 8.54545ZM38.3274 14.2131C41.0263 14.2131 42.8445 12.8991 43.2706 10.875L40.4723 10.6903C40.1669 11.5213 39.3857 11.9545 38.3771 11.9545C36.8643 11.9545 35.9055 10.9531 35.9055 9.3267V9.3196H43.3345V8.48864C43.3345 4.78125 41.0902 2.94886 38.2067 2.94886C34.9964 2.94886 32.9155 5.22869 32.9155 8.59517C32.9155 12.054 34.968 14.2131 38.3274 14.2131ZM35.9055 7.4446C35.9695 6.2017 36.9141 5.20739 38.2564 5.20739C39.5703 5.20739 40.4794 6.14489 40.4865 7.4446H35.9055ZM54.3857 6.2017C54.1158 4.19176 52.4964 2.94886 49.7408 2.94886C46.9496 2.94886 45.1101 4.24148 45.1172 6.34375C45.1101 7.97727 46.1399 9.03551 48.2706 9.46165L50.1598 9.83807C51.1115 10.0298 51.5447 10.3778 51.5589 10.9247C51.5447 11.571 50.8416 12.0327 49.7834 12.0327C48.7038 12.0327 47.9865 11.571 47.8018 10.6832L44.826 10.8395C45.1101 12.9276 46.8857 14.2131 49.7763 14.2131C52.603 14.2131 54.6271 12.7713 54.6342 10.6193C54.6271 9.04261 53.5973 8.09801 51.4808 7.66477L49.5064 7.26705C48.4908 7.04688 48.1143 6.69886 48.1214 6.1733C48.1143 5.51989 48.853 5.09375 49.7905 5.09375C50.8416 5.09375 51.4666 5.66903 51.6158 6.37216L54.3857 6.2017ZM62.342 3.09091H60.2894V0.477273H57.2638V3.09091H55.7724V5.36364H57.2638V11.0455C57.2496 13.1832 58.7056 14.2415 60.9002 14.1491C61.6815 14.1207 62.2354 13.9645 62.5408 13.8651L62.065 11.6136C61.9158 11.642 61.5962 11.7131 61.3121 11.7131C60.7085 11.7131 60.2894 11.4858 60.2894 10.6477V5.36364H62.342V3.09091ZM69.1246 14.2131C72.4343 14.2131 74.494 11.9474 74.494 8.58807C74.494 5.20739 72.4343 2.94886 69.1246 2.94886C65.815 2.94886 63.7553 5.20739 63.7553 8.58807C63.7553 11.9474 65.815 14.2131 69.1246 14.2131ZM69.1388 11.8693C67.6119 11.8693 66.8306 10.4702 66.8306 8.56676C66.8306 6.66335 67.6119 5.2571 69.1388 5.2571C70.6374 5.2571 71.4187 6.66335 71.4187 8.56676C71.4187 10.4702 70.6374 11.8693 69.1388 11.8693ZM76.4613 14H79.4869V7.82812C79.4869 6.4858 80.467 5.5625 81.8022 5.5625C82.2212 5.5625 82.7965 5.63352 83.0806 5.72585V3.04119C82.8107 2.97727 82.4343 2.93466 82.1289 2.93466C80.9073 2.93466 79.9059 3.64489 79.5082 4.99432H79.3945V3.09091H76.4613V14ZM86.8448 18.0909C89.0962 18.0909 90.2894 16.9403 90.9073 15.179L95.1474 3.10511L91.9442 3.09091L89.6644 11.1023H89.5508L87.2923 3.09091H84.1104L88.0238 14.3125L87.8462 14.7741C87.4485 15.7969 86.6886 15.8466 85.6232 15.5199L84.9414 17.7784C85.3746 17.9631 86.0778 18.0909 86.8448 18.0909ZM103.445 14H93.892V16.294H103.445V14Z" fill="black"/>
</svg>
